Coordinates
version=1
nRows=10
nColumns=38
inDegrees=yes

Units are S.I. units (second, meters, Newtons, ...)
Angles are in degrees.

endheader
time	pelvis_tilt	pelvis_list	pelvis_rotation	pelvis_tx	pelvis_ty	pelvis_tz	hip_flexion_r	hip_adduction_r	hip_rotation_r	knee_angle_r	ankle_angle_r	subtalar_angle_r	mtp_angle_r	hip_flexion_l	hip_adduction_l	hip_rotation_l	knee_angle_l	ankle_angle_l	subtalar_angle_l	mtp_angle_l	lumbar_extension	lumbar_bending	lumbar_rotation	arm_flex_r	arm_add_r	arm_rot_r	elbow_flex_r	pro_sup_r	wrist_flex_r	wrist_dev_r	arm_flex_l	arm_add_l	arm_rot_l	elbow_flex_l	pro_sup_l	wrist_flex_l	wrist_dev_l
      1.91000000	      2.34713121	     -4.44090352	     -4.82576035	      0.65818098	      0.94760666	     -0.23657244	    -17.91659448	      7.36257251	      1.53812468	    -18.53335508	     11.81677982	      0.00000000	      0.00000000	     25.68405601	     -4.51161554	     -8.59593151	    -15.36337404	      2.92007616	      0.00000000	      0.00000000	    -13.82967318	      3.23179885	      8.66362873	      6.83930463	    -17.27617943	     20.05205193	     68.64995663	     43.58938094	      0.00000000	      0.00000000	    -11.43048043	     -7.72651055	     35.60930337	     23.49030964	     43.58938094	      0.00000000	      0.00000000
      1.92000000	      2.29666332	     -4.33521091	     -4.75988458	      0.67405919	      0.94746430	     -0.23725431	    -17.99246527	      7.08183793	      1.20116905	    -19.94384401	     10.02360625	      0.00000000	      0.00000000	     25.64941194	     -4.45915234	    -10.12670912	    -16.78866128	      1.35317031	      0.00000000	      0.00000000	    -13.58145326	      3.03596761	      8.52694846	      6.34647229	    -17.05192591	     20.07037041	     68.53990075	     43.59580454	      0.00000000	      0.00000000	    -11.49541226	     -7.72407917	     35.60923748	     23.35461525	     43.59580454	      0.00000000	      0.00000000
      1.93000000	      1.95199198	     -3.53711830	     -4.79338133	      0.68959468	      0.94745047	     -0.23820105	    -17.32950462	      6.07458551	      0.76736225	    -21.96742831	      8.31314245	      0.00000000	      0.00000000	     25.70903503	     -3.81793214	    -11.68230885	    -17.11226480	      0.05913630	      0.00000000	      0.00000000	    -12.99273293	      2.07683578	      8.31709223	      5.80684075	    -16.58454848	     19.85585881	     68.08156818	     43.61670579	      0.00000000	      0.00000000	    -11.43468930	     -7.76739851	     35.61243872	     23.02501289	     43.61670579	      0.00000000	      0.00000000
      1.94000000	      1.86464281	     -3.20697934	     -4.59256140	      0.70507334	      0.94842261	     -0.23938116	    -16.89332434	      5.55993147	      0.22946008	    -23.93613285	      5.72045588	      0.00000000	      0.00000000	     25.28646842	     -3.32312829	    -11.51774652	    -17.39027621	     -1.10717155	      0.00000000	      0.00000000	    -12.78144769	      1.65747432	      8.05040463	      5.23378764	    -16.28086047	     19.87382115	     67.77098613	     43.62452129	      0.00000000	      0.00000000	    -11.25594428	     -7.78874810	     35.62925647	     22.98201791	     43.62452129	      0.00000000	      0.00000000
      1.95000000	      1.72728577	     -2.53735100	     -4.13729285	      0.72089423	      0.94939313	     -0.24130764	    -16.12981964	      4.70083349	     -0.85124905	    -26.29065933	      2.88617673	      0.00000000	      0.00000000	     24.97536029	     -2.43281913	    -11.38059116	    -18.07654335	     -2.98933869	      0.00000000	      0.00000000	    -12.40939735	      0.96203150	      7.37084617	      4.73690052	    -15.69936772	     19.59963668	     66.80890959	     43.65000412	      0.00000000	      0.00000000	    -11.13261833	     -7.82583309	     35.75477156	     22.79958859	     43.65000412	      0.00000000	      0.00000000
      1.96000000	      1.72937378	     -2.14650492	     -3.82782402	      0.73635000	      0.95101788	     -0.24261802	    -15.29776582	      3.98250147	     -2.01009538	    -28.86061297	     -0.78982102	      0.00000000	      0.00000000	     24.67355283	     -1.84721936	    -10.35359405	    -19.15684058	     -3.32037698	      0.00000000	      0.00000000	    -12.26923155	      0.50885035	      6.90383884	      4.26749565	    -15.16000317	     19.44645701	     65.69306553	     43.68310415	      0.00000000	      0.00000000	    -10.86453359	     -7.87040501	     35.98159344	     22.72277233	     43.68310415	      0.00000000	      0.00000000
      1.97000000	      1.93487914	     -1.80541390	     -3.73535792	      0.75186783	      0.95292636	     -0.24352124	    -14.46165272	      3.22815463	     -2.73254552	    -31.67409646	     -4.83706817	      0.00000000	      0.00000000	     24.21298695	     -1.39734565	     -9.70214264	    -20.47094659	     -2.48550553	      0.00000000	      0.00000000	    -12.36410653	      0.06162419	      6.74360493	      3.61368693	    -14.84836010	     19.56313734	     65.26398947	     43.69096540	      0.00000000	      0.00000000	    -10.48143875	     -7.94019406	     36.03027433	     22.79696486	     43.69096540	      0.00000000	      0.00000000
      1.98000000	      1.73565217	     -1.70793989	     -3.34717645	      0.76691923	      0.95399947	     -0.24451082	    -12.99059300	      2.83494937	     -3.68638081	    -34.74307848	     -8.57858663	      0.00000000	      0.00000000	     24.34217628	     -1.05938690	     -8.53265386	    -22.10303915	     -1.68733250	      0.00000000	      0.00000000	    -12.03471139	     -0.07132359	      6.24379436	      3.18948060	    -14.28088538	     19.49263124	     63.81191030	     43.72852441	      0.00000000	      0.00000000	    -10.17972058	     -8.06525548	     36.39798503	     22.95758293	     43.72852441	      0.00000000	      0.00000000
      1.99000000	      2.02653882	     -1.48093552	     -3.28241750	      0.78214317	      0.95575182	     -0.24537734	    -11.94505466	      2.18091312	     -4.20543440	    -37.89542740	    -11.20002819	      0.00000000	      0.00000000	     23.63036095	     -0.61001503	     -7.83737375	    -23.25991613	     -0.41665873	      0.00000000	      0.00000000	    -12.24842484	     -0.35695646	      6.09018251	      2.55441206	    -13.99193588	     19.64266495	     63.42972728	     43.73523896	      0.00000000	      0.00000000	     -9.70563523	     -8.11049081	     36.44367093	     23.09142783	     43.73523896	      0.00000000	      0.00000000
      2.00000000	      2.12085815	     -1.23601673	     -3.04420924	      0.79656476	      0.95724871	     -0.24652921	    -10.30503127	      1.52377043	     -4.84379588	    -41.57374818	    -13.65096860	      0.00000000	      0.00000000	     23.06817121	     -0.14646794	     -7.41684924	    -24.12615853	      0.67596512	      0.00000000	      0.00000000	    -12.34127801	     -0.62376973	      5.72715234	      1.99551398	    -13.72543018	     19.73209674	     62.82462712	     43.74455448	      0.00000000	      0.00000000	     -9.09942966	     -8.16663020	     36.53190517	     23.32838750	     43.74455448	      0.00000000	      0.00000000
